<svg id="visual" viewBox="0 0 900 600" width="900" height="600" xmlns="http://www.w3.org/2000/svg" xmlns:xlink="http://www.w3.org/1999/xlink" version="1.1"><rect x="0" y="0" width="900" height="600" fill="#D6AB42"></rect><defs><linearGradient id="grad1_0" x1="33.3%" y1="0%" x2="100%" y2="100%"><stop offset="20%" stop-color="#f9f9f9" stop-opacity="1"></stop><stop offset="80%" stop-color="#f9f9f9" stop-opacity="1"></stop></linearGradient></defs><defs><linearGradient id="grad1_1" x1="33.3%" y1="0%" x2="100%" y2="100%"><stop offset="20%" stop-color="#f9f9f9" stop-opacity="1"></stop><stop offset="80%" stop-color="#d6ab42" stop-opacity="1"></stop></linearGradient></defs><defs><linearGradient id="grad2_0" x1="0%" y1="0%" x2="66.7%" y2="100%"><stop offset="20%" stop-color="#f9f9f9" stop-opacity="1"></stop><stop offset="80%" stop-color="#f9f9f9" stop-opacity="1"></stop></linearGradient></defs><defs><linearGradient id="grad2_1" x1="0%" y1="0%" x2="66.7%" y2="100%"><stop offset="20%" stop-color="#d6ab42" stop-opacity="1"></stop><stop offset="80%" stop-color="#f9f9f9" stop-opacity="1"></stop></linearGradient></defs><g transform="translate(900, 0)"><path d="M0 513.8C-18.7 460.9 -37.3 408 -64.1 405C-90.9 401.9 -125.9 448.5 -144.9 446C-164 443.5 -167.1 391.8 -197.5 387.6C-227.9 383.3 -285.5 426.5 -295.1 406.1C-304.6 385.7 -266.2 301.8 -272.9 272.9C-279.7 244.1 -331.7 270.2 -378.6 275.1C-425.6 279.9 -467.5 263.4 -450 229.3C-432.4 195.1 -355.3 143.2 -364.3 118.4C-373.2 93.5 -468.2 95.6 -507.5 80.4C-546.7 65.1 -530.3 32.6 -513.8 0L0 0Z" fill="#edd19e"></path><path d="M0 256.9C-9.3 230.5 -18.7 204 -32.1 202.5C-45.5 200.9 -62.9 224.3 -72.5 223C-82 221.8 -83.6 195.9 -98.7 193.8C-113.9 191.7 -142.7 213.3 -147.5 203.1C-152.3 192.9 -133.1 150.9 -136.5 136.5C-139.8 122 -165.8 135.1 -189.3 137.5C-212.8 140 -233.8 131.7 -225 114.6C-216.2 97.5 -177.7 71.6 -182.1 59.2C-186.6 46.7 -234.1 47.8 -253.7 40.2C-273.4 32.6 -265.1 16.3 -256.9 0L0 0Z" fill="#f9f9f9"></path></g><g transform="translate(0, 600)"><path d="M0 -513.8C18 -449 36 -384.2 59.1 -373.3C82.2 -362.5 110.4 -405.5 134.1 -412.8C157.8 -420 177.2 -391.4 182.5 -358.2C187.8 -324.9 179.2 -287 215.7 -296.9C252.2 -306.8 333.9 -364.6 363.3 -363.3C392.7 -362 369.8 -301.5 364.9 -265.1C359.9 -228.7 372.9 -216.5 393.8 -200.7C414.8 -184.8 443.6 -165.4 430.8 -140C418 -114.5 363.5 -83 370.4 -58.7C377.3 -34.3 445.5 -17.2 513.8 0L0 0Z" fill="#edd19e"></path><path d="M0 -256.9C9 -224.5 18 -192.1 29.6 -186.7C41.1 -181.2 55.2 -202.8 67.1 -206.4C78.9 -210 88.6 -195.7 91.3 -179.1C93.9 -162.5 89.6 -143.5 107.9 -148.5C126.1 -153.4 167 -182.3 181.7 -181.7C196.4 -181 184.9 -150.7 182.4 -132.5C180 -114.4 186.4 -108.2 196.9 -100.3C207.4 -92.4 221.8 -82.7 215.4 -70C209 -57.3 181.8 -41.5 185.2 -29.3C188.6 -17.2 222.8 -8.6 256.9 0L0 0Z" fill="#f9f9f9"></path></g></svg>