<svg id="visual" viewBox="0 0 900 600" width="900" height="600" xmlns="http://www.w3.org/2000/svg" xmlns:xlink="http://www.w3.org/1999/xlink" version="1.1"><rect x="0" y="0" width="900" height="600" fill="#D6AB42"></rect><defs><linearGradient id="grad1_0" x1="33.3%" y1="0%" x2="100%" y2="100%"><stop offset="20%" stop-color="#edd19e" stop-opacity="1"></stop><stop offset="80%" stop-color="#edd19e" stop-opacity="1"></stop></linearGradient></defs><defs><linearGradient id="grad1_1" x1="33.3%" y1="0%" x2="100%" y2="100%"><stop offset="20%" stop-color="#edd19e" stop-opacity="1"></stop><stop offset="80%" stop-color="#d6ab42" stop-opacity="1"></stop></linearGradient></defs><defs><linearGradient id="grad2_0" x1="0%" y1="0%" x2="66.7%" y2="100%"><stop offset="20%" stop-color="#edd19e" stop-opacity="1"></stop><stop offset="80%" stop-color="#edd19e" stop-opacity="1"></stop></linearGradient></defs><defs><linearGradient id="grad2_1" x1="0%" y1="0%" x2="66.7%" y2="100%"><stop offset="20%" stop-color="#d6ab42" stop-opacity="1"></stop><stop offset="80%" stop-color="#edd19e" stop-opacity="1"></stop></linearGradient></defs><g transform="translate(900, 0)"><path d="M0 486.7C-20.2 432.7 -40.4 378.6 -65.6 372.3C-90.9 365.9 -121.1 407.3 -156 428.5C-190.8 449.7 -230.4 450.7 -239.5 414.8C-248.6 379 -227.4 306.3 -228.8 272.7C-230.3 239.1 -254.3 244.6 -298.8 250.7C-343.2 256.8 -407.9 263.7 -421.5 243.4C-435.2 223.1 -397.6 175.7 -401.2 146C-404.9 116.4 -449.6 104.4 -470.7 83C-491.8 61.6 -489.3 30.8 -486.7 0L0 0Z" fill="#e3be71"></path><path d="M0 243.4C-10.1 216.3 -20.2 189.3 -32.8 186.1C-45.4 183 -60.5 203.7 -78 214.2C-95.4 224.8 -115.2 225.3 -119.7 207.4C-124.3 189.5 -113.7 153.2 -114.4 136.4C-115.1 119.6 -127.2 122.3 -149.4 125.3C-171.6 128.4 -204 131.8 -210.8 121.7C-217.6 111.5 -198.8 87.9 -200.6 73C-202.4 58.2 -224.8 52.2 -235.4 41.5C-245.9 30.8 -244.6 15.4 -243.4 0L0 0Z" fill="#edd19e"></path></g><g transform="translate(0, 600)"><path d="M0 -486.7C14.1 -413.9 28.3 -341.1 62.3 -353.5C96.4 -366 150.4 -463.7 166.5 -457.4C182.6 -451.1 160.8 -340.8 183.5 -317.8C206.2 -294.9 273.2 -359.4 305.3 -363.9C337.4 -368.4 334.7 -313 320.2 -268.7C305.8 -224.4 279.7 -191.3 312.6 -180.5C345.6 -169.7 437.7 -181.3 451.1 -164.2C464.4 -147.1 399.1 -101.3 392 -69.1C384.8 -37 435.8 -18.5 486.7 0L0 0Z" fill="#e3be71"></path><path d="M0 -243.4C7.1 -207 14.1 -170.6 31.2 -176.8C48.2 -183 75.2 -231.9 83.2 -228.7C91.3 -225.5 80.4 -170.4 91.7 -158.9C103.1 -147.4 136.6 -179.7 152.7 -181.9C168.7 -184.2 167.3 -156.5 160.1 -134.3C152.9 -112.2 139.8 -95.6 156.3 -90.3C172.8 -84.9 218.8 -90.6 225.5 -82.1C232.2 -73.5 199.6 -50.6 196 -34.6C192.4 -18.5 217.9 -9.2 243.4 0L0 0Z" fill="#edd19e"></path></g></svg>